<svg xmlns="http://www.w3.org/2000/svg" viewBox="0 0 32 32" fill="none">
  <rect width="32" height="32" rx="8" fill="url(#a)"/>
  <path fill="#fff" fill-rule="evenodd" d="M16 8a4 4 0 0 1 4 4v2h2a2 2 0 0 1 2 2v8a2 2 0 0 1-2 2H10a2 2 0 0 1-2-2v-8a2 2 0 0 1 2-2h2v-2a4 4 0 0 1 4-4Zm0 2a2 2 0 0 0-2 2v2h4v-2a2 2 0 0 0-2-2Z" clip-rule="evenodd"/>
  <defs>
    <linearGradient id="a" x1="0" y1="0" x2="32" y2="32" gradientUnits="userSpaceOnUse">
      <stop stop-color="#4f46e5"/>
      <stop offset="1" stop-color="#6366f1"/>
    </linearGradient>
  </defs>
</svg>
